<svg xmlns="http://www.w3.org/2000/svg" viewBox="0 0 32 32">
  <defs>
    <linearGradient id="cloudGrad" x1="0%" y1="0%" x2="100%" y2="100%">
      <stop offset="0%" style="stop-color:#ffffff;stop-opacity:1" />
      <stop offset="100%" style="stop-color:#e0e0e0;stop-opacity:1" />
    </linearGradient>
  </defs>
  <circle cx="16" cy="16" r="16" fill="#7d53de"/>
  <path d="M24 18.5c0 1.93-1.57 3.5-3.5 3.5H10c-2.21 0-4-1.79-4-4 0-1.93 1.37-3.54 3.19-3.91C9.07 13.73 9 13.38 9 13c0-2.21 1.79-4 4-4 1.68 0 3.12 1.04 3.71 2.51C17.14 11.19 17.79 11 18.5 11c2.21 0 4 1.79 4 4 0 .37-.05.72-.14 1.06C23.5 16.28 24 17.33 24 18.5z" fill="url(#cloudGrad)"/>
</svg>
